<svg width="36" height="36" viewBox="0 0 36 36" fill="none" xmlns="http://www.w3.org/2000/svg">
<path d="M32.715 5.91006C30.405 11.6701 24.615 19.5001 19.77 23.3851L16.815 25.7551C16.44 26.0251 16.065 26.2651 15.645 26.4301C15.645 26.1601 15.63 25.8601 15.585 25.5751C15.42 24.3151 14.85 23.1451 13.845 22.1401C12.825 21.1201 11.58 20.5201 10.305 20.3551C10.005 20.3401 9.705 20.3101 9.405 20.3401C9.57 19.8751 9.825 19.4401 10.14 19.0801L12.48 16.1251C16.35 11.2801 24.21 5.46006 29.955 3.16506C30.84 2.83506 31.695 3.07506 32.235 3.63006C32.805 4.18506 33.075 5.04006 32.715 5.91006Z" fill="white" stroke="black" stroke-linecap="round" stroke-linejoin="round"/>
<path d="M15.645 26.43C15.645 28.08 15.015 29.655 13.83 30.855C12.915 31.77 11.67 32.4 10.185 32.595L6.49501 33C4.48501 33.225 2.76001 31.515 3.00001 29.475L3.40501 25.785C3.76501 22.5 6.51001 20.4 9.42001 20.34C9.72001 20.325 10.035 20.34 10.32 20.355C11.595 20.52 12.84 21.105 13.86 22.14C14.865 23.145 15.435 24.315 15.6 25.575C15.615 25.86 15.645 26.145 15.645 26.43Z" fill="white" stroke="black" stroke-linecap="round" stroke-linejoin="round"/>
<path d="M21.36 21.705C21.36 17.79 18.18 14.61 14.265 14.61" stroke="black" stroke-linecap="round" stroke-linejoin="round"/>
</svg>
