<svg width="36" height="36" viewBox="0 0 36 36" fill="none" xmlns="http://www.w3.org/2000/svg">
<rect width="36" height="36" fill="#D9D9D9"/>
<path d="M13.0114 20.4064L10.7845 22.6334C10.1442 22.0323 9.14227 22.0289 8.51446 22.6534C7.86527 23.2842 7.86518 24.3254 8.51419 24.9563L9.631 26.0731C9.95021 26.4107 10.3881 26.555 10.785 26.555C11.1955 26.555 11.6098 26.4023 11.9336 26.0786L15.3086 22.7036C15.9388 22.0733 15.9388 21.0367 15.3086 20.4064L15.3086 20.4064L15.3025 20.4005C14.6621 19.7814 13.645 19.7729 13.0114 20.4064ZM13.0114 9.90645L10.7845 12.1334C10.1442 11.5323 9.14226 11.5289 8.51446 12.1534C7.86528 12.7842 7.86518 13.8254 8.51417 14.4563L9.63098 15.5731C9.95019 15.9107 10.3881 16.055 10.785 16.055C11.1955 16.055 11.6098 15.9023 11.9336 15.5786L15.3086 12.2036C15.9388 11.5733 15.9388 10.5367 15.3086 9.90645L15.3086 9.9064L15.3025 9.90051C14.6621 9.28141 13.645 9.27294 13.0114 9.90645ZM11.715 3.5H24.285C26.9156 3.5 28.9551 4.28218 30.3364 5.66355C31.7178 7.04493 32.5 9.08443 32.5 11.715V24.285C32.5 26.9156 31.7178 28.9551 30.3364 30.3364C28.9551 31.7178 26.9156 32.5 24.285 32.5H11.715C9.08443 32.5 7.04493 31.7178 5.66355 30.3364C4.28218 28.9551 3.5 26.9156 3.5 24.285V11.715C3.5 9.08443 4.28218 7.04493 5.66355 5.66355C7.04493 4.28218 9.08443 3.5 11.715 3.5ZM18.465 25.43H26.34C27.2505 25.43 27.965 24.6918 27.965 23.805C27.965 22.9182 27.2505 22.18 26.34 22.18H18.465C17.5739 22.18 16.84 22.9139 16.84 23.805C16.84 24.6961 17.5739 25.43 18.465 25.43ZM18.465 14.93H26.34C27.2505 14.93 27.965 14.1918 27.965 13.305C27.965 12.4182 27.2505 11.68 26.34 11.68H18.465C17.5739 11.68 16.84 12.4139 16.84 13.305C16.84 14.1961 17.5739 14.93 18.465 14.93Z" fill="white" stroke="black"/>
</svg>
