<svg width="60" height="60" viewBox="0 0 60 60" fill="none" xmlns="http://www.w3.org/2000/svg">
<rect width="60" height="60" fill="#D9D9D9"/>
<path d="M41.6581 27.235V27.235H41.655H35.595C34.4398 27.235 33.7581 27.0271 33.3595 26.6743C32.9766 26.3355 32.75 25.7667 32.75 24.765V17.97C32.75 16.9769 32.9761 16.4069 33.3602 16.0657C33.7594 15.711 34.4415 15.5 35.595 15.5H41.655C42.8085 15.5 43.4906 15.711 43.8898 16.0657C44.2739 16.4069 44.5 16.9769 44.5 17.97V24.78C44.5 25.7735 44.2737 26.3427 43.8905 26.6818C43.4924 27.0341 42.8113 27.2423 41.6581 27.235Z" fill="white" stroke="black"/>
<path d="M44.5 35.595V41.655C44.5 42.7974 44.2671 43.4695 43.8683 43.8683C43.4695 44.2671 42.7974 44.5 41.655 44.5H35.595C34.4526 44.5 33.7805 44.2671 33.3817 43.8683C32.9829 43.4695 32.75 42.7974 32.75 41.655V35.595C32.75 34.4526 32.9829 33.7805 33.3817 33.3817C33.7805 32.9829 34.4526 32.75 35.595 32.75H41.655C42.7974 32.75 43.4695 32.9829 43.8683 33.3817C44.2671 33.7805 44.5 34.4526 44.5 35.595Z" fill="white" stroke="black"/>
<path d="M24.4081 27.235V27.235H24.405H18.345C17.1898 27.235 16.5081 27.0271 16.1095 26.6743C15.7266 26.3355 15.5 25.7667 15.5 24.765V17.97C15.5 16.9769 15.7261 16.4069 16.1102 16.0657C16.5094 15.711 17.1915 15.5 18.345 15.5H24.405C25.5585 15.5 26.2406 15.711 26.6398 16.0657C27.0239 16.4069 27.25 16.9769 27.25 17.97V24.78C27.25 25.7735 27.0237 26.3427 26.6405 26.6818C26.2424 27.0341 25.5613 27.2423 24.4081 27.235Z" fill="white" stroke="black"/>
<path d="M27.25 35.595V41.655C27.25 42.7974 27.0171 43.4695 26.6183 43.8683C26.2195 44.2671 25.5474 44.5 24.405 44.5H18.345C17.2026 44.5 16.5305 44.2671 16.1317 43.8683C15.7329 43.4695 15.5 42.7974 15.5 41.655V35.595C15.5 34.4526 15.7329 33.7805 16.1317 33.3817C16.5305 32.9829 17.2026 32.75 18.345 32.75H24.405C25.5474 32.75 26.2195 32.9829 26.6183 33.3817C27.0171 33.7805 27.25 34.4526 27.25 35.595Z" fill="white" stroke="black"/>
</svg>
