<svg width="45" height="45" viewBox="0 0 45 45" fill="none" xmlns="http://www.w3.org/2000/svg">
<rect x="0.5" y="0.5" width="44" height="44" rx="22" fill="white"/>
<rect x="0.5" y="0.5" width="44" height="44" rx="22" stroke="#B9B9B9"/>
<path d="M22.5 12.1875C17.0027 12.1875 14.1551 12.4388 12.9367 12.5905C12.4971 12.6452 12.1875 13.0201 12.1875 13.4631L12.1875 16.4556C12.1875 16.9356 12.3697 17.3954 12.7127 17.7311C13.692 18.6899 15.9754 20.8117 19.0058 22.9009C19.2405 23.0627 19.392 23.3211 19.4152 23.6053C19.7545 27.7538 20.0677 30.6795 20.2184 32.0084C20.2705 32.4679 20.6597 32.8125 21.1222 32.8125C21.3072 32.8125 21.4879 32.7565 21.6405 32.6519L24.1042 30.9624C24.4801 30.7047 24.746 30.3193 24.8255 29.8705C24.9867 28.9602 25.2706 27.056 25.5767 23.6064C25.6017 23.3242 25.7529 23.0671 25.9863 22.9064C29.0206 20.8154 31.3072 18.6907 32.2873 17.7311C32.6303 17.3954 32.8125 16.9356 32.8125 16.4556V13.4631C32.8125 13.0201 32.5029 12.6452 32.0633 12.5905C30.8449 12.4388 27.9973 12.1875 22.5 12.1875Z" stroke="#3C6E71" stroke-width="1.5" stroke-linejoin="round"/>
</svg>
