<svg width="36" height="36" viewBox="0 0 36 36" fill="none" xmlns="http://www.w3.org/2000/svg">
<path d="M19.4918 10.2212L19.5496 10.2697L19.566 10.2834L19.8845 9.90391M19.4918 10.2212L20.6751 9.90879L20.6085 9.96234C20.5239 10.0181 20.441 10.0774 20.3601 10.14L20.3597 10.1403C20.3022 10.1848 20.2449 10.2293 20.1877 10.2739C20.1847 10.2762 20.1817 10.2785 20.1788 10.2808L19.8845 9.90391M19.4918 10.2212C19.594 10.1376 19.6972 10.0538 19.8014 9.96971C19.8289 9.94757 19.8564 9.9254 19.884 9.90322L19.8845 9.90391M19.4918 10.2212L20.054 9.74466C20.0198 9.77106 19.9857 9.79751 19.9516 9.82402C19.9258 9.84403 19.9001 9.86407 19.8744 9.88416L19.8874 9.90043L19.8845 9.90391M15.8505 30.7656L15.8506 30.7657C17.1682 31.6451 18.861 31.6642 20.1906 30.8084C22.4051 29.3831 25.9221 27.0377 29.9114 24.0709C28.6822 22.572 27.3787 21.086 26.0175 19.6323C24.6111 19.6996 23.3854 19.3213 22.3852 18.7781C20.844 19.9932 19.5191 20.8808 18.7109 21.394L18.4429 20.9719L18.7109 21.394C17.6283 22.0814 15.9584 22.5041 14.321 21.6729C14.321 21.6729 14.321 21.6729 14.321 21.6729L14.5473 21.2271L15.8505 30.7656ZM15.8505 30.7656C12.7775 28.7148 7.19602 24.8748 1.54721 20.4086L1.23711 20.8008L1.54721 20.4086C1.30717 20.2188 1.16608 19.9905 1.13314 19.7444C1.02192 18.9119 0.859985 16.9168 0.859985 12.3892C0.859985 8.01365 1.01114 5.76762 1.12309 4.70541C2.8975 6.14033 4.53537 7.52256 5.74411 8.55891C6.37194 9.0972 6.88372 9.54193 7.23837 9.85194C7.41568 10.0069 7.55371 10.1282 7.6473 10.2107L7.75372 10.3046L7.78073 10.3285L7.78748 10.3345L7.78913 10.336L7.78953 10.3363L7.78962 10.3364L8.12151 9.96246M15.8505 30.7656L8.12151 9.96246M8.12151 9.96246L7.78964 10.3364L8.01162 10.5334L8.29071 10.433L8.29077 10.4329L8.29087 10.4329L8.29149 10.4327L8.29542 10.4313L8.31299 10.4251C8.32897 10.4195 8.3534 10.411 8.38584 10.4C8.45072 10.3781 8.54758 10.3459 8.67284 10.3064C8.92343 10.2273 9.28723 10.1186 9.73565 10.0019C10.634 9.76801 11.8646 9.50383 13.201 9.37855C13.9694 9.30657 14.74 9.52945 15.4036 9.97031M8.12151 9.96246L15.4036 9.97031M15.4036 9.97031C13.9282 11.2944 12.7709 12.4548 11.978 13.2892L15.4036 9.97031ZM22.8229 9.3794C24.1541 9.50597 25.3787 9.76989 26.2724 10.0031C26.7185 10.1196 27.0803 10.2279 27.3295 10.3067C27.454 10.3461 27.5503 10.3781 27.6148 10.4C27.647 10.4109 27.6713 10.4193 27.6872 10.4249L27.7047 10.4311L27.7086 10.4325L27.7092 10.4327L27.7093 10.4327L27.7093 10.4327L27.9886 10.5334L28.2108 10.3362C28.2446 10.3061 31.2793 7.61463 34.8769 4.70541C34.9888 5.76762 35.14 8.01364 35.14 12.3892C35.14 16.9169 34.978 18.912 34.8667 19.7444C34.8338 19.9907 34.6931 20.2185 34.4533 20.4081L34.7634 20.8003L34.4533 20.4081C33.7983 20.926 33.1442 21.4355 32.4947 21.9348C31.5589 20.7939 30.5819 19.6607 29.5706 18.543C29.9447 18.3297 30.3172 18.0846 30.6873 17.807L30.6873 17.807L31.2785 17.3636C31.2785 17.3636 31.2785 17.3635 31.2785 17.3635C32.019 16.8082 32.169 15.7577 31.6138 15.0172L31.6137 15.0171C31.0582 14.2768 30.0078 14.1266 29.2673 14.682L29.2673 14.682L28.6761 15.1254C28.0722 15.5784 27.5108 15.8738 26.9954 16.0522L22.8229 9.3794Z" fill="white" stroke="black"/>
</svg>
