<svg width="36" height="36" viewBox="0 0 36 36" fill="none" xmlns="http://www.w3.org/2000/svg">
<path d="M7.72664 29.1143C7.83 30.8862 9.11461 32.2995 10.8816 32.4689C12.5093 32.625 14.8521 32.7656 18 32.7656C21.1479 32.7656 23.4914 32.625 25.1184 32.4689C26.8861 32.3002 28.17 30.8869 28.2734 29.1143C28.4062 26.8474 28.5469 23.2123 28.5469 18C28.5469 12.7877 28.4062 9.15258 28.2734 6.8857C28.17 5.11383 26.8861 3.70055 25.1184 3.53109C23.4907 3.375 21.1479 3.23438 18 3.23438C14.8521 3.23438 12.5086 3.375 10.8816 3.53109C9.11461 3.69984 7.83 5.11312 7.72664 6.8857C7.59375 9.15258 7.45312 12.7877 7.45312 18C7.45312 23.2123 7.59375 26.8474 7.72664 29.1143Z" fill="white" stroke="black" stroke-linejoin="round"/>
<path d="M16.5938 29.25H19.4062" stroke="black" stroke-linecap="round"/>
<path d="M13.9683 3.31946L14.2538 5.60461C14.3174 6.11493 14.5652 6.58444 14.9507 6.92485C15.3361 7.26527 15.8327 7.45313 16.347 7.45313H19.6538C20.1678 7.45318 20.6642 7.26551 21.0496 6.92538C21.4351 6.58526 21.683 6.11609 21.747 5.60602L22.0324 3.32086" stroke="black" stroke-linecap="round" stroke-linejoin="round"/>
</svg>
