<svg width="36" height="36" viewBox="0 0 36 36" fill="none" xmlns="http://www.w3.org/2000/svg">
<path d="M32.485 11.7136V11.715V24.285C32.485 26.9156 31.7028 28.9551 30.3214 30.3364C28.9401 31.7178 26.9006 32.5 24.27 32.5H11.715C9.08444 32.5 7.04509 31.7178 5.66377 30.3348C4.28239 28.9517 3.5 26.9084 3.5 24.27V11.715C3.5 9.08443 4.28218 7.04493 5.66355 5.66355C7.04493 4.28218 9.08443 3.5 11.715 3.5H24.285C26.9157 3.5 28.955 4.28222 30.3344 5.66333C31.7136 7.04434 32.4922 9.08338 32.485 11.7136ZM13.11 26.525C14.3583 26.525 15.365 25.5239 15.365 24.285V19.395C15.365 18.1561 14.3583 17.155 13.11 17.155C11.8739 17.155 10.87 18.1589 10.87 19.395V24.285C10.87 25.5211 11.8739 26.525 13.11 26.525ZM22.89 26.525C24.1261 26.525 25.13 25.5211 25.13 24.285V11.715C25.13 10.4789 24.1261 9.475 22.89 9.475C21.6417 9.475 20.635 10.4761 20.635 11.715V24.285C20.635 25.5239 21.6417 26.525 22.89 26.525Z" fill="white" stroke="black"/>
</svg>
